<svg width="21" height="21" viewBox="0 0 21 21" fill="none" xmlns="http://www.w3.org/2000/svg">
<path d="M16.9641 6.74681C16.7877 6.84115 16.7385 6.93138 16.7344 7.15697V7.35794L18.0756 8.70326L19.4209 10.0486H9.86836H0.31992L0.180467 10.188C-0.00820507 10.3767 -0.0164082 10.6023 0.159959 10.7951L0.278904 10.9304L9.83965 10.9509L19.4004 10.9714L18.1043 12.2634C17.3906 12.973 16.7836 13.6128 16.7508 13.6867C16.6113 14.0066 16.8984 14.3634 17.2471 14.2978C17.3414 14.2773 17.7844 13.8589 19.1666 12.4767C20.8934 10.7458 20.959 10.6761 20.959 10.5285C20.959 10.4423 20.9344 10.3234 20.9016 10.2619C20.8113 10.0896 17.4686 6.77962 17.3373 6.73041C17.1814 6.66888 17.1035 6.67298 16.9641 6.74681Z" fill="white"/>
</svg>
