<svg width="7" height="12" viewBox="0 0 7 12" fill="none" xmlns="http://www.w3.org/2000/svg">
<path d="M6.74219 1.25C6.74219 1.28906 6.73242 1.33464 6.71289 1.38672C6.69336 1.4388 6.67057 1.47786 6.64453 1.50391L2.25 5.89844L6.64453 10.2734C6.67057 10.3125 6.69336 10.3548 6.71289 10.4004C6.73242 10.446 6.74219 10.4883 6.74219 10.5273C6.74219 10.5794 6.73242 10.6283 6.71289 10.6738C6.69336 10.7194 6.67057 10.7617 6.64453 10.8008L6.07812 11.3477C6.03906 11.3867 5.99674 11.416 5.95117 11.4355C5.9056 11.4551 5.86328 11.4648 5.82422 11.4648C5.77214 11.4648 5.72331 11.4551 5.67773 11.4355C5.63216 11.416 5.59635 11.3867 5.57031 11.3477L0.355469 6.15234C0.329427 6.11328 0.306641 6.07096 0.287109 6.02539C0.267578 5.97982 0.257812 5.9375 0.257812 5.89844C0.257812 5.84635 0.267578 5.79753 0.287109 5.75195C0.306641 5.70638 0.329427 5.67057 0.355469 5.64453L5.57031 0.429688C5.59635 0.403646 5.63216 0.380859 5.67773 0.361328C5.72331 0.341797 5.77214 0.332031 5.82422 0.332031C5.86328 0.332031 5.9056 0.341797 5.95117 0.361328C5.99674 0.380859 6.03906 0.403646 6.07812 0.429688L6.64453 0.996094C6.67057 1.02214 6.69336 1.05794 6.71289 1.10352C6.73242 1.14909 6.74219 1.19792 6.74219 1.25Z" fill="white"/>
</svg>
