<svg width="7" height="12" viewBox="0 0 7 12" fill="none" xmlns="http://www.w3.org/2000/svg">
<path d="M6.75195 5.89844C6.75195 5.9375 6.74219 5.97982 6.72266 6.02539C6.70312 6.07096 6.67383 6.11328 6.63477 6.15234L1.43945 11.3477C1.40039 11.3867 1.35807 11.416 1.3125 11.4355C1.26693 11.4551 1.22461 11.4648 1.18555 11.4648C1.13346 11.4648 1.08464 11.4551 1.03906 11.4355C0.99349 11.416 0.957682 11.3867 0.931641 11.3477L0.365234 10.8008C0.339193 10.7617 0.313151 10.7194 0.287109 10.6738C0.261068 10.6283 0.248047 10.5794 0.248047 10.5273C0.248047 10.4883 0.261068 10.446 0.287109 10.4004C0.313151 10.3548 0.339193 10.3125 0.365234 10.2734L4.75977 5.89844L0.365234 1.50391C0.339193 1.47786 0.313151 1.4388 0.287109 1.38672C0.261068 1.33464 0.248047 1.28906 0.248047 1.25C0.248047 1.21094 0.261068 1.16536 0.287109 1.11328C0.313151 1.0612 0.339193 1.02214 0.365234 0.996094L0.931641 0.429688C0.957682 0.403646 0.99349 0.380859 1.03906 0.361328C1.08464 0.341797 1.13346 0.332031 1.18555 0.332031C1.22461 0.332031 1.26693 0.341797 1.3125 0.361328C1.35807 0.380859 1.40039 0.403646 1.43945 0.429688L6.63477 5.64453C6.67383 5.67057 6.70312 5.70638 6.72266 5.75195C6.74219 5.79753 6.75195 5.84635 6.75195 5.89844Z" fill="white"/>
</svg>
