<svg width="310" height="9" viewBox="0 0 310 9" fill="none" xmlns="http://www.w3.org/2000/svg">
<path d="M3.003 8.66992L0.407 0.969921H1.243L3.674 8.21892H3.256L5.764 0.969921H6.512L8.987 8.21892H8.591L11.044 0.969921H11.825L9.229 8.66992H8.371L6.006 1.79492H6.226L3.85 8.66992H3.003ZM15.5435 4.41292H19.6135V5.10592H15.5435V4.41292ZM15.6315 7.96592H20.2625V8.66992H14.8175V0.969921H20.0975V1.67392H15.6315V7.96592ZM28.0548 8.66992V0.969921H31.1898C32.0111 0.969921 32.7298 1.13492 33.3458 1.46492C33.9691 1.78759 34.4531 2.23859 34.7978 2.81792C35.1424 3.39726 35.3148 4.06459 35.3148 4.81992C35.3148 5.57526 35.1424 6.24259 34.7978 6.82192C34.4531 7.40126 33.9691 7.85592 33.3458 8.18592C32.7298 8.50859 32.0111 8.66992 31.1898 8.66992H28.0548ZM28.8688 7.96592H31.1458C31.8278 7.96592 32.4181 7.83392 32.9168 7.56992C33.4228 7.29859 33.8151 6.92826 34.0938 6.45892C34.3724 5.98226 34.5118 5.43592 34.5118 4.81992C34.5118 4.19659 34.3724 3.65025 34.0938 3.18092C33.8151 2.71159 33.4228 2.34492 32.9168 2.08092C32.4181 1.80959 31.8278 1.67392 31.1458 1.67392H28.8688V7.96592ZM42.0087 8.73592C41.4293 8.73592 40.8903 8.64059 40.3917 8.44992C39.9003 8.25192 39.4713 7.97692 39.1047 7.62492C38.7453 7.26559 38.463 6.85126 38.2577 6.38192C38.0597 5.90526 37.9607 5.38459 37.9607 4.81992C37.9607 4.25526 38.0597 3.73825 38.2577 3.26892C38.463 2.79225 38.7453 2.37792 39.1047 2.02592C39.4713 1.66659 39.9003 1.39159 40.3917 1.20092C40.883 1.00292 41.422 0.903922 42.0087 0.903922C42.588 0.903922 43.1233 1.00292 43.6147 1.20092C44.106 1.39159 44.5313 1.66292 44.8907 2.01492C45.2573 2.36692 45.5397 2.78125 45.7377 3.25792C45.943 3.73459 46.0457 4.25526 46.0457 4.81992C46.0457 5.38459 45.943 5.90526 45.7377 6.38192C45.5397 6.85859 45.2573 7.27292 44.8907 7.62492C44.5313 7.97692 44.106 8.25192 43.6147 8.44992C43.1233 8.64059 42.588 8.73592 42.0087 8.73592ZM42.0087 8.00992C42.4707 8.00992 42.896 7.93292 43.2847 7.77892C43.6807 7.61759 44.0217 7.39392 44.3077 7.10792C44.601 6.81459 44.8283 6.47726 44.9897 6.09592C45.151 5.70726 45.2317 5.28192 45.2317 4.81992C45.2317 4.35792 45.151 3.93625 44.9897 3.55492C44.8283 3.16626 44.601 2.82892 44.3077 2.54292C44.0217 2.24959 43.6807 2.02592 43.2847 1.87192C42.896 1.71059 42.4707 1.62992 42.0087 1.62992C41.5467 1.62992 41.1177 1.71059 40.7217 1.87192C40.3257 2.02592 39.981 2.24959 39.6877 2.54292C39.4017 2.82892 39.1743 3.16626 39.0057 3.55492C38.8443 3.93625 38.7637 4.35792 38.7637 4.81992C38.7637 5.27459 38.8443 5.69626 39.0057 6.08492C39.1743 6.47359 39.4017 6.81459 39.6877 7.10792C39.981 7.39392 40.3257 7.61759 40.7217 7.77892C41.1177 7.93292 41.5467 8.00992 42.0087 8.00992ZM49.3702 8.66992V0.969921H50.0412L55.3542 7.65792H55.0022V0.969921H55.8052V8.66992H55.1342L49.8322 1.98192H50.1842V8.66992H49.3702ZM59.3785 3.87392L59.3235 0.969921H60.0165L59.9615 3.87392H59.3785ZM65.0918 8.66992V1.67392H62.3858V0.969921H68.6118V1.67392H65.9058V8.66992H65.0918ZM77.9141 8.73592C77.3421 8.73592 76.7921 8.64426 76.2641 8.46092C75.7434 8.27026 75.3401 8.02826 75.0541 7.73492L75.3731 7.10792C75.6444 7.37192 76.0074 7.59559 76.4621 7.77892C76.9241 7.95492 77.4081 8.04292 77.9141 8.04292C78.3981 8.04292 78.7904 7.98426 79.0911 7.86692C79.3991 7.74226 79.6228 7.57726 79.7621 7.37192C79.9088 7.16659 79.9821 6.93926 79.9821 6.68992C79.9821 6.38926 79.8941 6.14726 79.7181 5.96392C79.5494 5.78059 79.3258 5.63759 79.0471 5.53492C78.7684 5.42492 78.4604 5.32959 78.1231 5.24892C77.7858 5.16825 77.4484 5.08392 77.1111 4.99592C76.7738 4.90059 76.4621 4.77592 76.1761 4.62192C75.8974 4.46792 75.6701 4.26625 75.4941 4.01692C75.3254 3.76025 75.2411 3.42659 75.2411 3.01592C75.2411 2.63459 75.3401 2.28625 75.5381 1.97092C75.7434 1.64825 76.0551 1.39159 76.4731 1.20092C76.8911 1.00292 77.4264 0.903922 78.0791 0.903922C78.5118 0.903922 78.9408 0.966255 79.3661 1.09092C79.7914 1.20825 80.1581 1.37325 80.4661 1.58592L80.1911 2.23492C79.8611 2.01492 79.5091 1.85359 79.1351 1.75092C78.7684 1.64826 78.4128 1.59692 78.0681 1.59692C77.6061 1.59692 77.2248 1.65925 76.9241 1.78392C76.6234 1.90859 76.3998 2.07725 76.2531 2.28992C76.1138 2.49525 76.0441 2.72992 76.0441 2.99392C76.0441 3.29459 76.1284 3.53659 76.2971 3.71992C76.4731 3.90326 76.7004 4.04626 76.9791 4.14892C77.2651 4.25159 77.5768 4.34326 77.9141 4.42392C78.2514 4.50459 78.5851 4.59259 78.9151 4.68792C79.2524 4.78326 79.5604 4.90792 79.8391 5.06192C80.1251 5.20859 80.3524 5.40659 80.5211 5.65592C80.6971 5.90526 80.7851 6.23159 80.7851 6.63492C80.7851 7.00892 80.6824 7.35726 80.4771 7.67992C80.2718 7.99526 79.9564 8.25192 79.5311 8.44992C79.1131 8.64059 78.5741 8.73592 77.9141 8.73592ZM84.7847 4.41292H88.8547V5.10592H84.7847V4.41292ZM84.8727 7.96592H89.5037V8.66992H84.0587V0.969921H89.3387V1.67392H84.8727V7.96592ZM92.9171 8.66992V0.969921H93.7311V7.96592H98.0431V8.66992H92.9171ZM100.895 8.66992V0.969921H101.709V7.96592H106.021V8.66992H100.895ZM114.076 8.73592C113.643 8.73592 113.236 8.64059 112.855 8.44992C112.481 8.25926 112.18 7.98792 111.953 7.63592L112.426 7.08592C112.639 7.39392 112.884 7.62859 113.163 7.78992C113.442 7.95126 113.75 8.03192 114.087 8.03192C115.04 8.03192 115.517 7.46726 115.517 6.33792V1.67392H112.701V0.969921H116.32V6.30492C116.32 7.11892 116.129 7.72759 115.748 8.13092C115.374 8.53426 114.817 8.73592 114.076 8.73592ZM120.988 4.41292H125.058V5.10592H120.988V4.41292ZM121.076 7.96592H125.707V8.66992H120.262V0.969921H125.542V1.67392H121.076V7.96592ZM130.762 8.66992L128.166 0.969921H129.002L131.433 8.21892H131.015L133.523 0.969921H134.271L136.746 8.21892H136.35L138.803 0.969921H139.584L136.988 8.66992H136.13L133.765 1.79492H133.985L131.609 8.66992H130.762ZM143.302 4.41292H147.372V5.10592H143.302V4.41292ZM143.39 7.96592H148.021V8.66992H142.576V0.969921H147.856V1.67392H143.39V7.96592ZM151.435 8.66992V0.969921H152.249V7.96592H156.561V8.66992H151.435ZM159.412 8.66992V0.969921H162.294C162.947 0.969921 163.508 1.07625 163.977 1.28892C164.447 1.49426 164.806 1.79492 165.055 2.19092C165.312 2.57959 165.44 3.05259 165.44 3.60992C165.44 4.15259 165.312 4.62192 165.055 5.01792C164.806 5.40659 164.447 5.70726 163.977 5.91992C163.508 6.12526 162.947 6.22792 162.294 6.22792H159.863L160.226 5.85392V8.66992H159.412ZM164.67 8.66992L162.69 5.87592H163.57L165.561 8.66992H164.67ZM160.226 5.91992L159.863 5.53492H162.272C163.042 5.53492 163.625 5.36625 164.021 5.02892C164.425 4.69159 164.626 4.21859 164.626 3.60992C164.626 2.99392 164.425 2.51725 164.021 2.17992C163.625 1.84259 163.042 1.67392 162.272 1.67392H159.863L160.226 1.28892V5.91992ZM170.591 8.66992V5.80992L170.778 6.31592L167.511 0.969921H168.38L171.251 5.66692H170.789L173.66 0.969921H174.474L171.207 6.31592L171.394 5.80992V8.66992H170.591ZM181.021 6.02992V5.34792H183.903V6.02992H181.021ZM193.443 8.66992L190.847 0.969921H191.683L194.114 8.21892H193.696L196.204 0.969921H196.952L199.427 8.21892H199.031L201.484 0.969921H202.265L199.669 8.66992H198.811L196.446 1.79492H196.666L194.29 8.66992H193.443ZM205.984 4.41292H210.054V5.10592H205.984V4.41292ZM206.072 7.96592H210.703V8.66992H205.258V0.969921H210.538V1.67392H206.072V7.96592ZM220.618 8.73592C220.046 8.73592 219.496 8.64426 218.968 8.46092C218.448 8.27026 218.044 8.02826 217.758 7.73492L218.077 7.10792C218.349 7.37192 218.712 7.59559 219.166 7.77892C219.628 7.95492 220.112 8.04292 220.618 8.04292C221.102 8.04292 221.495 7.98426 221.795 7.86692C222.103 7.74226 222.327 7.57726 222.466 7.37192C222.613 7.16659 222.686 6.93926 222.686 6.68992C222.686 6.38926 222.598 6.14726 222.422 5.96392C222.254 5.78059 222.03 5.63759 221.751 5.53492C221.473 5.42492 221.165 5.32959 220.827 5.24892C220.49 5.16825 220.153 5.08392 219.815 4.99592C219.478 4.90059 219.166 4.77592 218.88 4.62192C218.602 4.46792 218.374 4.26625 218.198 4.01692C218.03 3.76025 217.945 3.42659 217.945 3.01592C217.945 2.63459 218.044 2.28625 218.242 1.97092C218.448 1.64825 218.759 1.39159 219.177 1.20092C219.595 1.00292 220.131 0.903922 220.783 0.903922C221.216 0.903922 221.645 0.966255 222.07 1.09092C222.496 1.20825 222.862 1.37325 223.17 1.58592L222.895 2.23492C222.565 2.01492 222.213 1.85359 221.839 1.75092C221.473 1.64826 221.117 1.59692 220.772 1.59692C220.31 1.59692 219.929 1.65925 219.628 1.78392C219.328 1.90859 219.104 2.07725 218.957 2.28992C218.818 2.49525 218.748 2.72992 218.748 2.99392C218.748 3.29459 218.833 3.53659 219.001 3.71992C219.177 3.90326 219.405 4.04626 219.683 4.14892C219.969 4.25159 220.281 4.34326 220.618 4.42392C220.956 4.50459 221.289 4.59259 221.619 4.68792C221.957 4.78326 222.265 4.90792 222.543 5.06192C222.829 5.20859 223.057 5.40659 223.225 5.65592C223.401 5.90526 223.489 6.23159 223.489 6.63492C223.489 7.00892 223.387 7.35726 223.181 7.67992C222.976 7.99526 222.661 8.25192 222.235 8.44992C221.817 8.64059 221.278 8.73592 220.618 8.73592ZM227.489 4.41292H231.559V5.10592H227.489V4.41292ZM227.577 7.96592H232.208V8.66992H226.763V0.969921H232.043V1.67392H227.577V7.96592ZM235.621 8.66992V0.969921H236.435V7.96592H240.747V8.66992H235.621ZM243.599 8.66992V0.969921H244.413V7.96592H248.725V8.66992H243.599ZM256.681 4.41292H260.751V5.10592H256.681V4.41292ZM256.769 7.96592H261.4V8.66992H255.955V0.969921H261.235V1.67392H256.769V7.96592ZM264.814 8.66992V0.969921H265.485L270.798 7.65792H270.446V0.969921H271.249V8.66992H270.578L265.276 1.98192H265.628V8.66992H264.814ZM275.988 4.41292H280.058V5.10592H275.988V4.41292ZM276.076 7.96592H280.707V8.66992H275.262V0.969921H280.542V1.67392H276.076V7.96592ZM284.12 8.66992V0.969921H287.002C287.655 0.969921 288.216 1.07625 288.685 1.28892C289.155 1.49426 289.514 1.79492 289.763 2.19092C290.02 2.57959 290.148 3.05259 290.148 3.60992C290.148 4.15259 290.02 4.62192 289.763 5.01792C289.514 5.40659 289.155 5.70726 288.685 5.91992C288.216 6.12526 287.655 6.22792 287.002 6.22792H284.571L284.934 5.85392V8.66992H284.12ZM289.378 8.66992L287.398 5.87592H288.278L290.269 8.66992H289.378ZM284.934 5.91992L284.571 5.53492H286.98C287.75 5.53492 288.333 5.36625 288.729 5.02892C289.133 4.69159 289.334 4.21859 289.334 3.60992C289.334 2.99392 289.133 2.51725 288.729 2.17992C288.333 1.84259 287.75 1.67392 286.98 1.67392H284.571L284.934 1.28892V5.91992ZM296.946 8.73592C296.36 8.73592 295.817 8.64059 295.318 8.44992C294.827 8.25192 294.398 7.97692 294.031 7.62492C293.672 7.27292 293.39 6.85859 293.184 6.38192C292.986 5.90526 292.887 5.38459 292.887 4.81992C292.887 4.25526 292.986 3.73459 293.184 3.25792C293.39 2.78125 293.676 2.36692 294.042 2.01492C294.409 1.66292 294.838 1.39159 295.329 1.20092C295.828 1.00292 296.371 0.903922 296.957 0.903922C297.544 0.903922 298.079 0.995588 298.563 1.17892C299.055 1.36225 299.473 1.64092 299.817 2.01492L299.311 2.53192C298.989 2.20925 298.633 1.97825 298.244 1.83892C297.856 1.69959 297.438 1.62992 296.99 1.62992C296.514 1.62992 296.074 1.71059 295.67 1.87192C295.274 2.02592 294.926 2.24959 294.625 2.54292C294.332 2.82892 294.101 3.16626 293.932 3.55492C293.771 3.93625 293.69 4.35792 293.69 4.81992C293.69 5.27459 293.771 5.69626 293.932 6.08492C294.101 6.47359 294.332 6.81459 294.625 7.10792C294.926 7.39392 295.274 7.61759 295.67 7.77892C296.074 7.93292 296.51 8.00992 296.979 8.00992C297.419 8.00992 297.834 7.94392 298.222 7.81192C298.618 7.67992 298.981 7.45626 299.311 7.14092L299.773 7.75692C299.407 8.07959 298.978 8.32526 298.486 8.49392C297.995 8.65526 297.482 8.73592 296.946 8.73592ZM298.992 7.65792V4.81992H299.773V7.75692L298.992 7.65792ZM305.414 8.66992V5.80992L305.601 6.31592L302.334 0.969921H303.203L306.074 5.66692H305.612L308.483 0.969921H309.297L306.03 6.31592L306.217 5.80992V8.66992H305.414Z" fill="white"/>
</svg>
